# xmcd CD database file
#
# Track frame offsets:
#	150
#	13987
#	31800
#	46207
#	58225
#	72100
#	93775
#	105475
#	120187
#	135375
#	153025
#	165550
#	181350
#	194850
#
# Disc length: 2791 seconds
#
# Revision: 3
# Processed by: cddbd v1.5.2PL0 Copyright (c) Steve Scherf et al.
# Submitted via: CDex 1.80
#
DISCID=ae0ae50e
DTITLE=Various Artist - Australia's Favourite Line Dances - Vol. 7
DYEAR=1998
DGENRE=Country
TTITLE0=Wrangler Butts - Jeff Moore
TTITLE1=Island - Eddy Raven
TTITLE2=Get Into Reggae Cowboy - The Bellamy Brothers
TTITLE3=From Good To Bad To Worse To Gone - Ricochet
TTITLE4=Restless - Shelby Lynne
TTITLE5=Geronimo (Dance Mix) - James T. Horn
TTITLE6=You Know Where I Am - Scooter Lee
TTITLE7=More Where That Came From - Dolly Parton
TTITLE8=Zydeco Lady - Eddy Raven
TTITLE9=Scott and Fran's Pasodoble - David Hirschfelder and The Bogo Pogo Orchestra
TTITLE10=Swing City - Roger Brown
TTITLE11=Serious Love  - Rick Trevino
TTITLE12=The Church On Cumberland Road - Shenandoah
TTITLE13=Boot Scootin' Boogie - Asleep At The Wheel
EXTD=YEAR: 1998
EXTT0=
EXTT1=
EXTT2=
EXTT3=
EXTT4=
EXTT5=
EXTT6=
EXTT7=
EXTT8=
EXTT9=
EXTT10=
EXTT11=
EXTT12=
EXTT13=
PLAYORDER=
